solid a1
facet normal 0.0 0.0 1.0
  outer loop
    vertex 17.899999999999977 -343.6499999999997 -31.002411
    vertex -17.900000000000002 -181.99999999999974 -31.002411
    vertex -17.900000000000002 -343.6499999999997 -31.002411
  endloop
endfacet
facet normal 0.0 0.0 1.0
  outer loop
    vertex -17.900000000000002 -181.99999999999974 -31.002411
    vertex 17.899999999999977 -343.6499999999997 -31.002411
    vertex 17.899999999999977 -181.99999999999974 -31.002411
  endloop
endfacet
facet normal -0.0 -0.0 -1.0
  outer loop
    vertex 17.899999999999977 -181.99999999999974 -32.402410999999994
    vertex -17.900000000000002 -343.6499999999997 -32.402410999999994
    vertex -17.900000000000002 -181.99999999999974 -32.402410999999994
  endloop
endfacet
facet normal -0.0 -0.0 -1.0
  outer loop
    vertex -17.900000000000002 -343.6499999999997 -32.402410999999994
    vertex 17.899999999999977 -181.99999999999974 -32.402410999999994
    vertex 17.899999999999977 -343.6499999999997 -32.402410999999994
  endloop
endfacet
facet normal 0.0 1.0 0.0
  outer loop
    vertex -17.900000000000002 -181.99999999999974 -31.002411
    vertex 17.899999999999977 -181.99999999999974 -32.402410999999994
    vertex -17.900000000000002 -181.99999999999974 -32.402410999999994
  endloop
endfacet
facet normal 0.0 1.0 0.0
  outer loop
    vertex 17.899999999999977 -181.99999999999974 -32.402410999999994
    vertex -17.900000000000002 -181.99999999999974 -31.002411
    vertex 17.899999999999977 -181.99999999999974 -31.002411
  endloop
endfacet
facet normal -1.0 0.0 0.0
  outer loop
    vertex -17.900000000000002 -181.99999999999974 -31.002411
    vertex -17.900000000000002 -343.6499999999997 -32.402410999999994
    vertex -17.900000000000002 -343.6499999999997 -31.002411
  endloop
endfacet
facet normal -1.0 0.0 0.0
  outer loop
    vertex -17.900000000000002 -343.6499999999997 -32.402410999999994
    vertex -17.900000000000002 -181.99999999999974 -31.002411
    vertex -17.900000000000002 -181.99999999999974 -32.402410999999994
  endloop
endfacet
facet normal 0.0 -1.0 0.0
  outer loop
    vertex 17.899999999999977 -343.6499999999997 -31.002411
    vertex -17.900000000000002 -343.6499999999997 -32.402410999999994
    vertex 17.899999999999977 -343.6499999999997 -32.402410999999994
  endloop
endfacet
facet normal 0.0 -1.0 0.0
  outer loop
    vertex -17.900000000000002 -343.6499999999997 -32.402410999999994
    vertex 17.899999999999977 -343.6499999999997 -31.002411
    vertex -17.900000000000002 -343.6499999999997 -31.002411
  endloop
endfacet
facet normal 1.0 0.0 0.0
  outer loop
    vertex 17.899999999999977 -181.99999999999974 -32.402410999999994
    vertex 17.899999999999977 -343.6499999999997 -31.002411
    vertex 17.899999999999977 -343.6499999999997 -32.402410999999994
  endloop
endfacet
facet normal 1.0 0.0 0.0
  outer loop
    vertex 17.899999999999977 -343.6499999999997 -31.002411
    vertex 17.899999999999977 -181.99999999999974 -32.402410999999994
    vertex 17.899999999999977 -181.99999999999974 -31.002411
  endloop
endfacet
endsolid a1
