solid a1
facet normal 0.19509032201615473 2.052658806889462e-16 -0.9807852804032251
  outer loop
    vertex -55.410521691719595 3.9034290994479606 6.800000000000041
    vertex -55.60186340790212 1.9034290994479643 6.761939766255681
    vertex -55.60186340790213 3.9034290994479606 6.761939766255681
  endloop
endfacet
facet normal 0.19509032201615473 2.052658806889462e-16 -0.9807852804032251
  outer loop
    vertex -55.60186340790212 1.9034290994479643 6.761939766255681
    vertex -55.410521691719595 3.9034290994479606 6.800000000000041
    vertex -55.41052169171959 1.9034290994479643 6.8000000000000425
  endloop
endfacet
facet normal -0.5555702330195667 -1.2697301950606127e-15 0.831469612302569
  outer loop
    vertex -47.81917997553704 1.903429099447987 3.638060233744412
    vertex -47.6569683011263 3.903429099447983 3.746446609406777
    vertex -47.81917997553704 3.903429099447983 3.6380602337444117
  endloop
endfacet
facet normal -0.5555702330195667 -1.2697301950606127e-15 0.831469612302569
  outer loop
    vertex -47.6569683011263 3.903429099447983 3.746446609406777
    vertex -47.81917997553704 1.903429099447987 3.638060233744412
    vertex -47.6569683011263 1.903429099447987 3.7464466094067777
  endloop
endfacet
facet normal 0.0 1.0 0.0
  outer loop
    vertex -62.31052169171947 -27.19657090055207 4.000000000000048
    vertex -60.710521691719485 -27.19657090055207 6.000000000000048
    vertex -60.710521691719485 -27.19657090055207 4.000000000000045
  endloop
endfacet
facet normal 0.0 1.0 0.0
  outer loop
    vertex -60.710521691719485 -27.19657090055207 6.000000000000048
    vertex -62.31052169171947 -27.19657090055207 4.000000000000048
    vertex -62.31052169171948 -27.19657090055207 6.000000000000045
  endloop
endfacet
facet normal 0.9807852804032392 2.7666847503489244e-15 -0.1950903220160846
  outer loop
    vertex -55.910521691719595 3.9034290994479606 6.3000000000000425
    vertex -55.872461457975234 1.9034290994479643 6.49134171618259
    vertex -55.91052169171958 1.9034290994479643 6.3000000000000425
  endloop
endfacet
facet normal 0.9807852804032392 2.7666847503489244e-15 -0.1950903220160846
  outer loop
    vertex -55.872461457975234 1.9034290994479643 6.49134171618259
    vertex -55.910521691719595 3.9034290994479606 6.3000000000000425
    vertex -55.87246145797525 3.9034290994479606 6.49134171618259
  endloop
endfacet
facet normal -0.9807852804032159 -2.6965286494888867e-15 0.19509032201620138
  outer loop
    vertex -47.510521691719575 3.903429099447983 4.100000000000052
    vertex -47.54858192546395 1.903429099447987 3.90865828381751
    vertex -47.510521691719575 1.903429099447987 4.100000000000052
  endloop
endfacet
facet normal -0.9807852804032159 -2.6965286494888867e-15 0.19509032201620138
  outer loop
    vertex -47.54858192546395 1.903429099447987 3.90865828381751
    vertex -47.510521691719575 3.903429099447983 4.100000000000052
    vertex -47.54858192546395 3.903429099447983 3.908658283817509
  endloop
endfacet
facet normal -0.8314696123025885 -2.1478382908748007e-15 0.5555702330195375
  outer loop
    vertex -47.54858192546395 3.903429099447983 3.908658283817509
    vertex -47.6569683011263 1.903429099447987 3.7464466094067777
    vertex -47.54858192546395 1.903429099447987 3.90865828381751
  endloop
endfacet
facet normal -0.8314696123025885 -2.1478382908748007e-15 0.5555702330195375
  outer loop
    vertex -47.6569683011263 1.903429099447987 3.7464466094067777
    vertex -47.54858192546395 3.903429099447983 3.908658283817509
    vertex -47.6569683011263 3.903429099447983 3.746446609406777
  endloop
endfacet
facet normal -0.980785280403217 -2.9037811232229873e-15 -0.1950903220161958
  outer loop
    vertex -47.54858192546396 3.903429099447983 6.4913417161826015
    vertex -47.510521691719575 1.903429099447987 6.300000000000055
    vertex -47.54858192546395 1.903429099447987 6.491341716182603
  endloop
endfacet
facet normal -0.980785280403217 -2.9037811232229873e-15 -0.1950903220161958
  outer loop
    vertex -47.510521691719575 1.903429099447987 6.300000000000055
    vertex -47.54858192546396 3.903429099447983 6.4913417161826015
    vertex -47.51052169171959 3.903429099447983 6.300000000000053
  endloop
endfacet
facet normal -2.256902089105342e-14 0.9999996319114244 0.0008580075848675286
  outer loop
    vertex -44.710521691719485 -29.700002932154806 6.000000000000071
    vertex -42.710521691719485 -29.696570900552 2.000000000000076
    vertex -44.71052169171948 -29.696570900552047 2.000000000000054
  endloop
endfacet
facet normal 0.8314696123025345 2.6408902970365972e-15 0.5555702330196183
  outer loop
    vertex -55.76407508231286 3.9034290994479606 3.746446609406765
    vertex -55.872461457975234 1.9034290994479643 3.908658283817498
    vertex -55.76407508231286 1.9034290994479643 3.7464466094067665
  endloop
endfacet
facet normal 0.8314696123025345 2.6408902970365972e-15 0.5555702330196183
  outer loop
    vertex -55.872461457975234 1.9034290994479643 3.908658283817498
    vertex -55.76407508231286 3.9034290994479606 3.746446609406765
    vertex -55.872461457975234 3.9034290994479606 3.908658283817497
  endloop
endfacet
facet normal -1.4532203199447578e-15 3.521544367456811e-16 1.0
  outer loop
    vertex -62.31052169171955 -5.196570900552045 8.800000000000033
    vertex -62.27246145797523 3.5947708156304987 8.800000000000031
    vertex -62.310521691719586 3.403429099447939 8.800000000000031
  endloop
endfacet
facet normal -1.4532203199447578e-15 3.521544367456811e-16 1.0
  outer loop
    vertex -62.27246145797523 3.5947708156304987 8.800000000000031
    vertex -62.31052169171955 -5.196570900552045 8.800000000000033
    vertex -60.71052169171956 -5.196570900552045 8.800000000000036
  endloop
endfacet
facet normal -1.4532203199447578e-15 3.521544367456811e-16 1.0
  outer loop
    vertex -62.27246145797523 3.5947708156304987 8.800000000000031
    vertex -60.71052169171956 -5.196570900552045 8.800000000000036
    vertex -62.164075082312856 3.7569824900412137 8.800000000000031
  endloop
endfacet
facet normal -1.4532203199447578e-15 3.521544367456811e-16 1.0
  outer loop
    vertex -62.164075082312856 3.7569824900412137 8.800000000000031
    vertex -60.71052169171956 -5.196570900552045 8.800000000000036
    vertex -62.00186340790214 3.86536886570359 8.800000000000031
  endloop
endfacet
facet normal -1.4532203199447578e-15 3.521544367456811e-16 1.0
  outer loop
    vertex -62.00186340790214 3.86536886570359 8.800000000000031
    vertex -60.71052169171956 -5.196570900552045 8.800000000000036
    vertex -61.810521691719586 3.9034290994479606 8.800000000000031
  endloop
endfacet
facet normal -1.4532203199447578e-15 3.521544367456811e-16 1.0
  outer loop
    vertex -61.810521691719586 3.9034290994479606 8.800000000000031
    vertex -60.71052169171956 -5.196570900552045 8.800000000000036
    vertex -60.710521691719585 1.9034290994479417 8.800000000000033
  endloop
endfacet
facet normal -1.4532203199447578e-15 3.521544367456811e-16 1.0
  outer loop
    vertex -60.710521691719585 1.9034290994479417 8.800000000000033
    vertex -41.610521691719605 3.903429099448006 8.80000000000006
    vertex -61.810521691719586 3.9034290994479606 8.800000000000031
  endloop
endfacet
facet normal -1.4532203199447578e-15 3.521544367456811e-16 1.0
  outer loop
    vertex -41.610521691719605 3.903429099448006 8.80000000000006
    vertex -60.710521691719585 1.9034290994479417 8.800000000000033
    vertex -42.7105216917196 1.9034290994480094 8.80000000000006
  endloop
endfacet
facet normal -1.4532203199447578e-15 3.521544367456811e-16 1.0
  outer loop
    vertex -41.610521691719605 3.903429099448006 8.80000000000006
    vertex -42.7105216917196 1.9034290994480094 8.80000000000006
    vertex -42.71052169171957 -5.196570900551977 8.800000000000061
  endloop
endfacet
facet normal -1.4532203199447578e-15 3.521544367456811e-16 1.0
  outer loop
    vertex -41.610521691719605 3.903429099448006 8.80000000000006
    vertex -42.71052169171957 -5.196570900551977 8.800000000000061
    vertex -41.110521691719576 -5.196570900551977 8.800000000000065
  endloop
endfacet
facet normal -1.4532203199447578e-15 3.521544367456811e-16 1.0
  outer loop
    vertex -41.610521691719605 3.903429099448006 8.80000000000006
    vertex -41.110521691719576 -5.196570900551977 8.800000000000065
    vertex -41.41917997553704 3.8653688657036573 8.80000000000006
  endloop
endfacet
facet normal -1.4532203199447578e-15 3.521544367456811e-16 1.0
  outer loop
    vertex -41.41917997553704 3.8653688657036573 8.80000000000006
    vertex -41.110521691719576 -5.196570900551977 8.800000000000065
    vertex -41.25696830112633 3.756982490041281 8.800000000000061
  endloop
endfacet
facet normal -1.4532203199447578e-15 3.521544367456811e-16 1.0
  outer loop
    vertex -41.25696830112633 3.756982490041281 8.800000000000061
    vertex -41.110521691719576 -5.196570900551977 8.800000000000065
    vertex -41.14858192546395 3.594770815630566 8.800000000000061
  endloop
endfacet
facet normal -1.4532203199447578e-15 3.521544367456811e-16 1.0
  outer loop
    vertex -41.14858192546395 3.594770815630566 8.800000000000061
    vertex -41.110521691719576 -5.196570900551977 8.800000000000065
    vertex -41.1105216917196 3.4034290994480068 8.800000000000061
  endloop
endfacet
facet normal -0.0017160132748243742 0.9999985276481365 -2.5176795539731425e-18
  outer loop
    vertex -42.710521691719485 -29.696570900552 6.000000000000074
    vertex -42.710521691719485 -29.696570900552 2.000000000000076
    vertex -44.710521691719485 -29.700002932154806 6.000000000000071
  endloop
endfacet
facet normal -2.2597984753434577e-16 1.0424140243993437e-15 1.0
  outer loop
    vertex -62.3113719976971 -31.699999999999495 6.000000000000052
    vertex -60.71052169171947 -29.696570900552047 6.000000000000048
    vertex -62.31052169171948 -27.19657090055207 6.000000000000045
  endloop
endfacet
facet normal -2.2597984753434577e-16 1.0424140243993437e-15 1.0
  outer loop
    vertex -60.71052169171947 -29.696570900552047 6.000000000000048
    vertex -62.3113719976971 -31.699999999999495 6.000000000000052
    vertex -58.71137199769712 -31.699999999999473 6.000000000000051
  endloop
endfacet
facet normal -2.2597984753434577e-16 1.0424140243993437e-15 1.0
  outer loop
    vertex -62.31052169171948 -27.19657090055207 6.000000000000045
    vertex -60.71052169171947 -29.696570900552047 6.000000000000048
    vertex -60.710521691719485 -27.19657090055207 6.000000000000048
  endloop
endfacet
facet normal -2.2597984753434577e-16 1.0424140243993437e-15 1.0
  outer loop
    vertex -60.71052169171947 -29.696570900552047 6.000000000000048
    vertex -58.71137199769712 -31.699999999999473 6.000000000000051
    vertex -58.71052169171948 -29.696570900552047 6.000000000000051
  endloop
endfacet
facet normal -3.222818837197603e-15 1.0 -1.7068852816352675e-29
  outer loop
    vertex -51.71052169171948 -24.700002932154838 2.0000000000000613
    vertex -44.71052169171949 -24.700002932154817 1.0000000000000728
    vertex -51.71052169171948 -24.700002932154838 1.000000000000063
  endloop
endfacet
facet normal -3.222818837197603e-15 1.0 -1.7068852816352675e-29
  outer loop
    vertex -44.71052169171949 -24.700002932154817 1.0000000000000728
    vertex -51.71052169171948 -24.700002932154838 2.0000000000000613
    vertex -44.71052169171949 -24.700002932154817 2.000000000000071
  endloop
endfacet
facet normal -1.1631974273637485e-15 2.9870739783128386e-16 1.0
  outer loop
    vertex -44.70709698547881 -31.699999999999452 2.0000000000000733
    vertex -58.710521691719464 -29.696570900552047 2.000000000000053
    vertex -58.71137199769711 -31.699999999999473 2.0000000000000533
  endloop
endfacet
facet normal -1.1631974273637485e-15 2.9870739783128386e-16 1.0
  outer loop
    vertex -58.710521691719464 -29.696570900552047 2.000000000000053
    vertex -44.70709698547881 -31.699999999999452 2.0000000000000733
    vertex -51.71052169171948 -24.700002932154838 2.0000000000000613
  endloop
endfacet
facet normal -1.1631974273637485e-15 2.9870739783128386e-16 1.0
  outer loop
    vertex -58.710521691719464 -29.696570900552047 2.000000000000053
    vertex -51.71052169171948 -24.700002932154838 2.0000000000000613
    vertex -51.710521691719514 -15.700002932154833 2.0000000000000577
  endloop
endfacet
facet normal -1.1631974273637485e-15 2.9870739783128386e-16 1.0
  outer loop
    vertex -51.71052169171948 -24.700002932154838 2.0000000000000613
    vertex -44.70709698547881 -31.699999999999452 2.0000000000000733
    vertex -44.71052169171948 -29.696570900552047 2.000000000000054
  endloop
endfacet
facet normal -1.1631974273637485e-15 2.9870739783128386e-16 1.0
  outer loop
    vertex -51.71052169171948 -24.700002932154838 2.0000000000000613
    vertex -44.71052169171948 -29.696570900552047 2.000000000000054
    vertex -44.71052169171949 -24.700002932154817 2.000000000000071
  endloop
endfacet
facet normal -1.1631974273637485e-15 2.9870739783128386e-16 1.0
  outer loop
    vertex -60.71052169171947 -29.696570900552047 2.0000000000000506
    vertex -42.710521691719585 1.9034290994480094 2.0000000000000635
    vertex -60.71052169171958 1.9034290994479417 2.0000000000000377
  endloop
endfacet
facet normal -1.1631974273637485e-15 2.9870739783128386e-16 1.0
  outer loop
    vertex -42.710521691719585 1.9034290994480094 2.0000000000000635
    vertex -60.71052169171947 -29.696570900552047 2.0000000000000506
    vertex -51.710521691719514 -15.700002932154833 2.0000000000000577
  endloop
endfacet
facet normal -1.1631974273637485e-15 2.9870739783128386e-16 1.0
  outer loop
    vertex -51.710521691719514 -15.700002932154833 2.0000000000000577
    vertex -60.71052169171947 -29.696570900552047 2.0000000000000506
    vertex -58.710521691719464 -29.696570900552047 2.000000000000053
  endloop
endfacet
facet normal -1.1631974273637485e-15 2.9870739783128386e-16 1.0
  outer loop
    vertex -42.710521691719585 1.9034290994480094 2.0000000000000635
    vertex -51.710521691719514 -15.700002932154833 2.0000000000000577
    vertex -44.71052169171953 -15.70000293215481 2.0000000000000675
  endloop
endfacet
facet normal -1.1631974273637485e-15 2.9870739783128386e-16 1.0
  outer loop
    vertex -42.710521691719585 1.9034290994480094 2.0000000000000635
    vertex -44.71052169171953 -15.70000293215481 2.0000000000000675
    vertex -44.71052169171949 -24.700002932154817 2.000000000000071
  endloop
endfacet
facet normal -1.1631974273637485e-15 2.9870739783128386e-16 1.0
  outer loop
    vertex -42.710521691719585 1.9034290994480094 2.0000000000000635
    vertex -44.71052169171949 -24.700002932154817 2.000000000000071
    vertex -44.71052169171948 -29.696570900552047 2.000000000000054
  endloop
endfacet
facet normal -1.1631974273637485e-15 2.9870739783128386e-16 1.0
  outer loop
    vertex -42.710521691719585 1.9034290994480094 2.0000000000000635
    vertex -44.71052169171948 -29.696570900552047 2.000000000000054
    vertex -42.710521691719485 -29.696570900552 2.000000000000076
  endloop
endfacet
facet normal 7.049916206369759e-15 1.0 5.639932965095809e-15
  outer loop
    vertex -42.71052169171949 -27.196570900552004 6.000000000000074
    vertex -41.1105216917195 -27.196570900552004 4.000000000000075
    vertex -42.71052169171949 -27.196570900551983 4.000000000000072
  endloop
endfacet
facet normal 7.049916206369759e-15 1.0 5.639932965095809e-15
  outer loop
    vertex -41.1105216917195 -27.196570900552004 4.000000000000075
    vertex -42.71052169171949 -27.196570900552004 6.000000000000074
    vertex -41.1105216917195 -27.196570900552004 6.000000000000076
  endloop
endfacet
facet normal 0.5555702330195641 1.5641649850654303e-15 -0.8314696123025709
  outer loop
    vertex -55.60186340790213 3.9034290994479606 6.761939766255681
    vertex -55.76407508231286 1.9034290994479643 6.653553390593316
    vertex -55.76407508231287 3.9034290994479606 6.653553390593316
  endloop
endfacet
facet normal 0.5555702330195641 1.5641649850654303e-15 -0.8314696123025709
  outer loop
    vertex -55.76407508231286 1.9034290994479643 6.653553390593316
    vertex -55.60186340790213 3.9034290994479606 6.761939766255681
    vertex -55.60186340790212 1.9034290994479643 6.761939766255681
  endloop
endfacet
facet normal -1.4132310744786863e-15 3.94258709027224e-16 1.0
  outer loop
    vertex -51.71052169171948 -24.700002932154838 1.000000000000063
    vertex -44.710521691719514 -15.70000293215481 1.0000000000000693
    vertex -51.7105216917195 -15.700002932154833 1.0000000000000595
  endloop
endfacet
facet normal -1.4132310744786863e-15 3.94258709027224e-16 1.0
  outer loop
    vertex -44.710521691719514 -15.70000293215481 1.0000000000000693
    vertex -51.71052169171948 -24.700002932154838 1.000000000000063
    vertex -44.71052169171949 -24.700002932154817 1.0000000000000728
  endloop
endfacet
facet normal -1.844120475281804e-15 2.503317906651196e-16 1.0
  outer loop
    vertex -44.70709698547881 -31.699999999999452 6.000000000000071
    vertex -42.710521691719485 -29.696570900552 6.000000000000074
    vertex -44.710521691719485 -29.700002932154806 6.000000000000071
  endloop
endfacet
facet normal -1.844120475281804e-15 2.503317906651196e-16 1.0
  outer loop
    vertex -42.710521691719485 -29.696570900552 6.000000000000074
    vertex -44.70709698547881 -31.699999999999452 6.000000000000071
    vertex -41.11137199769713 -31.699999999999427 6.000000000000078
  endloop
endfacet
facet normal -1.844120475281804e-15 2.503317906651196e-16 1.0
  outer loop
    vertex -42.710521691719485 -29.696570900552 6.000000000000074
    vertex -41.1105216917195 -27.196570900552004 6.000000000000076
    vertex -42.71052169171949 -27.196570900552004 6.000000000000074
  endloop
endfacet
facet normal -1.844120475281804e-15 2.503317906651196e-16 1.0
  outer loop
    vertex -41.1105216917195 -27.196570900552004 6.000000000000076
    vertex -42.710521691719485 -29.696570900552 6.000000000000074
    vertex -41.11137199769713 -31.699999999999427 6.000000000000078
  endloop
endfacet
facet normal -1.7624790515924392e-15 4.165859576491152e-16 1.0
  outer loop
    vertex -42.71052169171949 -27.196570900551983 4.000000000000072
    vertex -41.11052169171957 -5.196570900551977 4.000000000000066
    vertex -42.71052169171956 -5.196570900551977 4.000000000000062
  endloop
endfacet
facet normal -1.7624790515924392e-15 4.165859576491152e-16 1.0
  outer loop
    vertex -41.11052169171957 -5.196570900551977 4.000000000000066
    vertex -42.71052169171949 -27.196570900551983 4.000000000000072
    vertex -41.1105216917195 -27.196570900552004 4.000000000000075
  endloop
endfacet
facet normal 1.7624790515924423e-15 3.8454088398380927e-16 1.0
  outer loop
    vertex -62.31052169171947 -27.19657090055207 4.000000000000048
    vertex -60.71052169171955 -5.196570900552045 4.000000000000037
    vertex -62.310521691719536 -5.196570900552045 4.00000000000004
  endloop
endfacet
facet normal 1.7624790515924423e-15 3.8454088398380927e-16 1.0
  outer loop
    vertex -60.71052169171955 -5.196570900552045 4.000000000000037
    vertex -62.31052169171947 -27.19657090055207 4.000000000000048
    vertex -60.710521691719485 -27.19657090055207 4.000000000000045
  endloop
endfacet
facet normal 0.0 1.0 0.0
  outer loop
    vertex -60.71052169171947 -29.696570900552047 6.000000000000048
    vertex -58.710521691719464 -29.696570900552047 2.000000000000053
    vertex -60.71052169171947 -29.696570900552047 2.0000000000000506
  endloop
endfacet
facet normal 0.0 1.0 0.0
  outer loop
    vertex -58.710521691719464 -29.696570900552047 2.000000000000053
    vertex -60.71052169171947 -29.696570900552047 6.000000000000048
    vertex -58.71052169171948 -29.696570900552047 6.000000000000051
  endloop
endfacet
facet normal 0.9807852804032381 2.8357689082602494e-15 0.19509032201609017
  outer loop
    vertex -55.872461457975234 3.9034290994479606 3.908658283817497
    vertex -55.91052169171958 1.9034290994479643 4.1000000000000405
    vertex -55.872461457975234 1.9034290994479643 3.908658283817498
  endloop
endfacet
facet normal 0.9807852804032381 2.8357689082602494e-15 0.19509032201609017
  outer loop
    vertex -55.91052169171958 1.9034290994479643 4.1000000000000405
    vertex -55.872461457975234 3.9034290994479606 3.908658283817497
    vertex -55.91052169171958 3.9034290994479606 4.10000000000004
  endloop
endfacet
facet normal -1.0 -2.8199664825479046e-15 -2.5636058932253586e-15
  outer loop
    vertex -47.51052169171959 3.903429099447983 6.300000000000053
    vertex -47.510521691719575 1.903429099447987 4.100000000000052
    vertex -47.510521691719575 1.903429099447987 6.300000000000055
  endloop
endfacet
facet normal -1.0 -2.8199664825479046e-15 -2.5636058932253586e-15
  outer loop
    vertex -47.510521691719575 1.903429099447987 4.100000000000052
    vertex -47.51052169171959 3.903429099447983 6.300000000000053
    vertex -47.510521691719575 3.903429099447983 4.100000000000052
  endloop
endfacet
facet normal 0.19509032201615129 8.966690825390068e-16 0.980785280403226
  outer loop
    vertex -55.60186340790212 1.9034290994479643 3.638060233744402
    vertex -55.41052169171959 3.9034290994479606 3.6000000000000414
    vertex -55.60186340790212 3.9034290994479606 3.638060233744401
  endloop
endfacet
facet normal 0.19509032201615129 8.966690825390068e-16 0.980785280403226
  outer loop
    vertex -55.41052169171959 3.9034290994479606 3.6000000000000414
    vertex -55.60186340790212 1.9034290994479643 3.638060233744402
    vertex -55.41052169171959 1.9034290994479643 3.600000000000042
  endloop
endfacet
facet normal -0.19509032201615129 -2.0526588068893617e-16 0.980785280403226
  outer loop
    vertex -48.010521691719575 1.903429099447987 3.6000000000000525
    vertex -47.81917997553704 3.903429099447983 3.6380602337444117
    vertex -48.010521691719575 3.903429099447983 3.600000000000052
  endloop
endfacet
facet normal -0.19509032201615129 -2.0526588068893617e-16 0.980785280403226
  outer loop
    vertex -47.81917997553704 3.903429099447983 3.6380602337444117
    vertex -48.010521691719575 1.903429099447987 3.6000000000000525
    vertex -47.81917997553704 1.903429099447987 3.638060233744412
  endloop
endfacet
facet normal 1.0 3.133296091719886e-15 5.639932965095805e-15
  outer loop
    vertex -51.7105216917195 -15.700002932154833 1.0000000000000595
    vertex -51.71052169171948 -24.700002932154838 2.0000000000000613
    vertex -51.71052169171948 -24.700002932154838 1.000000000000063
  endloop
endfacet
facet normal 1.0 3.133296091719886e-15 5.639932965095805e-15
  outer loop
    vertex -51.71052169171948 -24.700002932154838 2.0000000000000613
    vertex -51.7105216917195 -15.700002932154833 1.0000000000000595
    vertex -51.710521691719514 -15.700002932154833 2.0000000000000577
  endloop
endfacet
facet normal -1.0 -3.133296091719886e-15 -5.639932965095805e-15
  outer loop
    vertex -44.71052169171953 -15.70000293215481 2.0000000000000675
    vertex -44.71052169171949 -24.700002932154817 1.0000000000000728
    vertex -44.71052169171949 -24.700002932154817 2.000000000000071
  endloop
endfacet
facet normal -1.0 -3.133296091719886e-15 -5.639932965095805e-15
  outer loop
    vertex -44.71052169171949 -24.700002932154817 1.0000000000000728
    vertex -44.71052169171953 -15.70000293215481 2.0000000000000675
    vertex -44.710521691719514 -15.70000293215481 1.0000000000000693
  endloop
endfacet
facet normal -0.1950903220161478 -8.966690825389971e-16 -0.9807852804032265
  outer loop
    vertex -47.81917997553705 3.903429099447983 6.761939766255693
    vertex -48.010521691719575 1.903429099447987 6.800000000000052
    vertex -48.01052169171959 3.903429099447983 6.800000000000051
  endloop
endfacet
facet normal -0.1950903220161478 -8.966690825389971e-16 -0.9807852804032265
  outer loop
    vertex -48.010521691719575 1.903429099447987 6.800000000000052
    vertex -47.81917997553705 3.903429099447983 6.761939766255693
    vertex -47.81917997553704 1.903429099447987 6.761939766255693
  endloop
endfacet
facet normal 0.9999999099315987 -0.0004244252523270738 1.4099857919124105e-15
  outer loop
    vertex -58.710521691719464 -29.696570900552047 2.000000000000053
    vertex -58.71137199769712 -31.699999999999473 6.000000000000051
    vertex -58.71137199769711 -31.699999999999473 2.0000000000000533
  endloop
endfacet
facet normal 0.9999999099315987 -0.0004244252523270738 1.4099857919124105e-15
  outer loop
    vertex -58.71137199769712 -31.699999999999473 6.000000000000051
    vertex -58.710521691719464 -29.696570900552047 2.000000000000053
    vertex -58.71052169171948 -29.696570900552047 6.000000000000051
  endloop
endfacet
facet normal 0.8314696123025261 2.344573327816075e-15 -0.5555702330196307
  outer loop
    vertex -55.87246145797525 3.9034290994479606 6.49134171618259
    vertex -55.76407508231286 1.9034290994479643 6.653553390593316
    vertex -55.872461457975234 1.9034290994479643 6.49134171618259
  endloop
endfacet
facet normal 0.8314696123025261 2.344573327816075e-15 -0.5555702330196307
  outer loop
    vertex -55.76407508231286 1.9034290994479643 6.653553390593316
    vertex -55.87246145797525 3.9034290994479606 6.49134171618259
    vertex -55.76407508231287 3.9034290994479606 6.653553390593316
  endloop
endfacet
facet normal -1.4290370688587308e-15 3.5249581031848373e-16 1.0
  outer loop
    vertex -55.41052169171959 1.9034290994479643 3.600000000000042
    vertex -48.010521691719575 3.903429099447983 3.600000000000052
    vertex -55.41052169171959 3.9034290994479606 3.6000000000000414
  endloop
endfacet
facet normal -1.4290370688587308e-15 3.5249581031848373e-16 1.0
  outer loop
    vertex -48.010521691719575 3.903429099447983 3.600000000000052
    vertex -55.41052169171959 1.9034290994479643 3.600000000000042
    vertex -48.010521691719575 1.903429099447987 3.6000000000000525
  endloop
endfacet
facet normal 0.555570233019563 2.0021821726651983e-15 0.8314696123025714
  outer loop
    vertex -55.76407508231286 1.9034290994479643 3.7464466094067665
    vertex -55.60186340790212 3.9034290994479606 3.638060233744401
    vertex -55.76407508231286 3.9034290994479606 3.746446609406765
  endloop
endfacet
facet normal 0.555570233019563 2.0021821726651983e-15 0.8314696123025714
  outer loop
    vertex -55.60186340790212 3.9034290994479606 3.638060233744401
    vertex -55.76407508231286 1.9034290994479643 3.7464466094067665
    vertex -55.60186340790212 1.9034290994479643 3.638060233744402
  endloop
endfacet
facet normal 1.3337679309348165e-15 -7.049916206369718e-16 -1.0
  outer loop
    vertex -48.01052169171959 3.903429099447983 6.800000000000051
    vertex -55.41052169171959 1.9034290994479643 6.8000000000000425
    vertex -55.410521691719595 3.9034290994479606 6.800000000000041
  endloop
endfacet
facet normal 1.3337679309348165e-15 -7.049916206369718e-16 -1.0
  outer loop
    vertex -55.41052169171959 1.9034290994479643 6.8000000000000425
    vertex -48.01052169171959 3.903429099447983 6.800000000000051
    vertex -48.010521691719575 1.903429099447987 6.800000000000052
  endloop
endfacet
facet normal 3.222818837197603e-15 -1.0 1.7068852816352675e-29
  outer loop
    vertex -44.710521691719514 -15.70000293215481 1.0000000000000693
    vertex -51.710521691719514 -15.700002932154833 2.0000000000000577
    vertex -51.7105216917195 -15.700002932154833 1.0000000000000595
  endloop
endfacet
facet normal 3.222818837197603e-15 -1.0 1.7068852816352675e-29
  outer loop
    vertex -51.710521691719514 -15.700002932154833 2.0000000000000577
    vertex -44.710521691719514 -15.70000293215481 1.0000000000000693
    vertex -44.71052169171953 -15.70000293215481 2.0000000000000675
  endloop
endfacet
facet normal -0.9999985364367792 -0.001710883912136216 -7.339759582985441e-07
  outer loop
    vertex -44.710521691719485 -29.700002932154806 6.000000000000071
    vertex -44.70709698547881 -31.699999999999452 2.0000000000000733
    vertex -44.70709698547881 -31.699999999999452 6.000000000000071
  endloop
endfacet
facet normal -0.9999985364367792 -0.001710883912136216 -7.339759582985441e-07
  outer loop
    vertex -44.70709698547881 -31.699999999999452 2.0000000000000733
    vertex -44.710521691719485 -29.700002932154806 6.000000000000071
    vertex -44.71052169171948 -29.696570900552047 2.000000000000054
  endloop
endfacet
facet normal -0.8314696123025784 -2.538879537141116e-15 -0.5555702330195526
  outer loop
    vertex -47.65696830112631 3.903429099447983 6.653553390593328
    vertex -47.54858192546395 1.903429099447987 6.491341716182603
    vertex -47.6569683011263 1.903429099447987 6.653553390593328
  endloop
endfacet
facet normal -0.8314696123025784 -2.538879537141116e-15 -0.5555702330195526
  outer loop
    vertex -47.54858192546395 1.903429099447987 6.491341716182603
    vertex -47.65696830112631 3.903429099447983 6.653553390593328
    vertex -47.54858192546396 3.903429099447983 6.4913417161826015
  endloop
endfacet
facet normal -0.5555702330195641 -1.5641649850654303e-15 -0.8314696123025709
  outer loop
    vertex -47.65696830112631 3.903429099447983 6.653553390593328
    vertex -47.81917997553704 1.903429099447987 6.761939766255693
    vertex -47.81917997553705 3.903429099447983 6.761939766255693
  endloop
endfacet
facet normal -0.5555702330195641 -1.5641649850654303e-15 -0.8314696123025709
  outer loop
    vertex -47.81917997553704 1.903429099447987 6.761939766255693
    vertex -47.65696830112631 3.903429099447983 6.653553390593328
    vertex -47.6569683011263 1.903429099447987 6.653553390593328
  endloop
endfacet
facet normal 3.3255459442763315e-15 -1.0 -1.0921995993320055e-16
  outer loop
    vertex -42.710521691719585 1.9034290994480094 2.0000000000000635
    vertex -48.010521691719575 1.903429099447987 3.6000000000000525
    vertex -55.41052169171959 1.9034290994479643 3.600000000000042
  endloop
endfacet
facet normal 3.3255459442763315e-15 -1.0 -1.0921995993320055e-16
  outer loop
    vertex -48.010521691719575 1.903429099447987 3.6000000000000525
    vertex -42.710521691719585 1.9034290994480094 2.0000000000000635
    vertex -47.81917997553704 1.903429099447987 3.638060233744412
  endloop
endfacet
facet normal 3.3255459442763315e-15 -1.0 -1.0921995993320055e-16
  outer loop
    vertex -47.81917997553704 1.903429099447987 3.638060233744412
    vertex -42.710521691719585 1.9034290994480094 2.0000000000000635
    vertex -47.6569683011263 1.903429099447987 3.7464466094067777
  endloop
endfacet
facet normal 3.3255459442763315e-15 -1.0 -1.0921995993320055e-16
  outer loop
    vertex -47.6569683011263 1.903429099447987 3.7464466094067777
    vertex -42.710521691719585 1.9034290994480094 2.0000000000000635
    vertex -42.7105216917196 1.9034290994480094 8.80000000000006
  endloop
endfacet
facet normal 3.3255459442763315e-15 -1.0 -1.0921995993320055e-16
  outer loop
    vertex -47.6569683011263 1.903429099447987 3.7464466094067777
    vertex -42.7105216917196 1.9034290994480094 8.80000000000006
    vertex -47.54858192546395 1.903429099447987 3.90865828381751
  endloop
endfacet
facet normal 3.3255459442763315e-15 -1.0 -1.0921995993320055e-16
  outer loop
    vertex -47.54858192546395 1.903429099447987 3.90865828381751
    vertex -42.7105216917196 1.9034290994480094 8.80000000000006
    vertex -47.510521691719575 1.903429099447987 4.100000000000052
  endloop
endfacet
facet normal 3.3255459442763315e-15 -1.0 -1.0921995993320055e-16
  outer loop
    vertex -47.510521691719575 1.903429099447987 4.100000000000052
    vertex -42.7105216917196 1.9034290994480094 8.80000000000006
    vertex -47.510521691719575 1.903429099447987 6.300000000000055
  endloop
endfacet
facet normal 3.3255459442763315e-15 -1.0 -1.0921995993320055e-16
  outer loop
    vertex -47.510521691719575 1.903429099447987 6.300000000000055
    vertex -42.7105216917196 1.9034290994480094 8.80000000000006
    vertex -47.54858192546395 1.903429099447987 6.491341716182603
  endloop
endfacet
facet normal 3.3255459442763315e-15 -1.0 -1.0921995993320055e-16
  outer loop
    vertex -47.54858192546395 1.903429099447987 6.491341716182603
    vertex -42.7105216917196 1.9034290994480094 8.80000000000006
    vertex -47.6569683011263 1.903429099447987 6.653553390593328
  endloop
endfacet
facet normal 3.3255459442763315e-15 -1.0 -1.0921995993320055e-16
  outer loop
    vertex -47.6569683011263 1.903429099447987 6.653553390593328
    vertex -42.7105216917196 1.9034290994480094 8.80000000000006
    vertex -47.81917997553704 1.903429099447987 6.761939766255693
  endloop
endfacet
facet normal 3.3255459442763315e-15 -1.0 -1.0921995993320055e-16
  outer loop
    vertex -47.81917997553704 1.903429099447987 6.761939766255693
    vertex -42.7105216917196 1.9034290994480094 8.80000000000006
    vertex -48.010521691719575 1.903429099447987 6.800000000000052
  endloop
endfacet
facet normal 3.3255459442763315e-15 -1.0 -1.0921995993320055e-16
  outer loop
    vertex -48.010521691719575 1.903429099447987 6.800000000000052
    vertex -42.7105216917196 1.9034290994480094 8.80000000000006
    vertex -60.710521691719585 1.9034290994479417 8.800000000000033
  endloop
endfacet
facet normal 3.3255459442763315e-15 -1.0 -1.0921995993320055e-16
  outer loop
    vertex -60.71052169171958 1.9034290994479417 2.0000000000000377
    vertex -55.76407508231286 1.9034290994479643 3.7464466094067665
    vertex -60.710521691719585 1.9034290994479417 8.800000000000033
  endloop
endfacet
facet normal 3.3255459442763315e-15 -1.0 -1.0921995993320055e-16
  outer loop
    vertex -55.76407508231286 1.9034290994479643 3.7464466094067665
    vertex -60.71052169171958 1.9034290994479417 2.0000000000000377
    vertex -55.60186340790212 1.9034290994479643 3.638060233744402
  endloop
endfacet
facet normal 3.3255459442763315e-15 -1.0 -1.0921995993320055e-16
  outer loop
    vertex -55.60186340790212 1.9034290994479643 3.638060233744402
    vertex -60.71052169171958 1.9034290994479417 2.0000000000000377
    vertex -55.41052169171959 1.9034290994479643 3.600000000000042
  endloop
endfacet
facet normal 3.3255459442763315e-15 -1.0 -1.0921995993320055e-16
  outer loop
    vertex -55.41052169171959 1.9034290994479643 3.600000000000042
    vertex -60.71052169171958 1.9034290994479417 2.0000000000000377
    vertex -42.710521691719585 1.9034290994480094 2.0000000000000635
  endloop
endfacet
facet normal 3.3255459442763315e-15 -1.0 -1.0921995993320055e-16
  outer loop
    vertex -60.710521691719585 1.9034290994479417 8.800000000000033
    vertex -55.76407508231286 1.9034290994479643 3.7464466094067665
    vertex -55.872461457975234 1.9034290994479643 3.908658283817498
  endloop
endfacet
facet normal 3.3255459442763315e-15 -1.0 -1.0921995993320055e-16
  outer loop
    vertex -60.710521691719585 1.9034290994479417 8.800000000000033
    vertex -55.872461457975234 1.9034290994479643 3.908658283817498
    vertex -55.91052169171958 1.9034290994479643 4.1000000000000405
  endloop
endfacet
facet normal 3.3255459442763315e-15 -1.0 -1.0921995993320055e-16
  outer loop
    vertex -60.710521691719585 1.9034290994479417 8.800000000000033
    vertex -55.91052169171958 1.9034290994479643 4.1000000000000405
    vertex -55.91052169171958 1.9034290994479643 6.3000000000000425
  endloop
endfacet
facet normal 3.3255459442763315e-15 -1.0 -1.0921995993320055e-16
  outer loop
    vertex -60.710521691719585 1.9034290994479417 8.800000000000033
    vertex -55.91052169171958 1.9034290994479643 6.3000000000000425
    vertex -55.872461457975234 1.9034290994479643 6.49134171618259
  endloop
endfacet
facet normal 3.3255459442763315e-15 -1.0 -1.0921995993320055e-16
  outer loop
    vertex -60.710521691719585 1.9034290994479417 8.800000000000033
    vertex -55.872461457975234 1.9034290994479643 6.49134171618259
    vertex -55.76407508231286 1.9034290994479643 6.653553390593316
  endloop
endfacet
facet normal 3.3255459442763315e-15 -1.0 -1.0921995993320055e-16
  outer loop
    vertex -60.710521691719585 1.9034290994479417 8.800000000000033
    vertex -55.76407508231286 1.9034290994479643 6.653553390593316
    vertex -55.60186340790212 1.9034290994479643 6.761939766255681
  endloop
endfacet
facet normal 3.3255459442763315e-15 -1.0 -1.0921995993320055e-16
  outer loop
    vertex -60.710521691719585 1.9034290994479417 8.800000000000033
    vertex -55.60186340790212 1.9034290994479643 6.761939766255681
    vertex -55.41052169171959 1.9034290994479643 6.8000000000000425
  endloop
endfacet
facet normal 3.3255459442763315e-15 -1.0 -1.0921995993320055e-16
  outer loop
    vertex -60.710521691719585 1.9034290994479417 8.800000000000033
    vertex -55.41052169171959 1.9034290994479643 6.8000000000000425
    vertex -48.010521691719575 1.903429099447987 6.800000000000052
  endloop
endfacet
facet normal 0.0 -1.0 0.0
  outer loop
    vertex -41.11052169171957 -5.196570900551977 4.000000000000066
    vertex -42.71052169171957 -5.196570900551977 8.800000000000061
    vertex -42.71052169171956 -5.196570900551977 4.000000000000062
  endloop
endfacet
facet normal 0.0 -1.0 0.0
  outer loop
    vertex -42.71052169171957 -5.196570900551977 8.800000000000061
    vertex -41.11052169171957 -5.196570900551977 4.000000000000066
    vertex -41.110521691719576 -5.196570900551977 8.800000000000065
  endloop
endfacet
facet normal 0.9807852804032413 0.19509032201607351 1.8856450959547645e-15
  outer loop
    vertex -41.14858192546393 3.594770815630566 7.049916206369744e-14
    vertex -41.1105216917196 3.4034290994480068 8.800000000000061
    vertex -41.11052169171958 3.4034290994480068 7.049916206369744e-14
  endloop
endfacet
facet normal 0.9807852804032413 0.19509032201607351 1.8856450959547645e-15
  outer loop
    vertex -41.1105216917196 3.4034290994480068 8.800000000000061
    vertex -41.14858192546393 3.594770815630566 7.049916206369744e-14
    vertex -41.14858192546395 3.594770815630566 8.800000000000061
  endloop
endfacet
facet normal 1.0 3.2264884387045886e-15 1.7739396166145654e-15
  outer loop
    vertex -60.71052169171947 -29.696570900552047 2.0000000000000506
    vertex -60.710521691719485 -27.19657090055207 4.000000000000045
    vertex -60.71052169171947 -29.696570900552047 6.000000000000048
  endloop
endfacet
facet normal 1.0 3.2264884387045886e-15 1.7739396166145654e-15
  outer loop
    vertex -60.710521691719485 -27.19657090055207 4.000000000000045
    vertex -60.71052169171947 -29.696570900552047 2.0000000000000506
    vertex -60.71052169171958 1.9034290994479417 2.0000000000000377
  endloop
endfacet
facet normal 1.0 3.2264884387045886e-15 1.7739396166145654e-15
  outer loop
    vertex -60.710521691719485 -27.19657090055207 4.000000000000045
    vertex -60.71052169171958 1.9034290994479417 2.0000000000000377
    vertex -60.71052169171955 -5.196570900552045 4.000000000000037
  endloop
endfacet
facet normal 1.0 3.2264884387045886e-15 1.7739396166145654e-15
  outer loop
    vertex -60.71052169171955 -5.196570900552045 4.000000000000037
    vertex -60.71052169171958 1.9034290994479417 2.0000000000000377
    vertex -60.71052169171956 -5.196570900552045 8.800000000000036
  endloop
endfacet
facet normal 1.0 3.2264884387045886e-15 1.7739396166145654e-15
  outer loop
    vertex -60.71052169171956 -5.196570900552045 8.800000000000036
    vertex -60.71052169171958 1.9034290994479417 2.0000000000000377
    vertex -60.710521691719585 1.9034290994479417 8.800000000000033
  endloop
endfacet
facet normal 1.0 3.2264884387045886e-15 1.7739396166145654e-15
  outer loop
    vertex -60.710521691719485 -27.19657090055207 6.000000000000048
    vertex -60.71052169171947 -29.696570900552047 6.000000000000048
    vertex -60.710521691719485 -27.19657090055207 4.000000000000045
  endloop
endfacet
facet normal 0.5555702330196575 0.8314696123025084 1.067502310186915e-15
  outer loop
    vertex -41.41917997553704 3.8653688657036573 8.80000000000006
    vertex -41.256968301126314 3.756982490041281 7.014666625337895e-14
    vertex -41.41917997553703 3.8653688657036573 6.99704183482197e-14
  endloop
endfacet
facet normal 0.5555702330196575 0.8314696123025084 1.067502310186915e-15
  outer loop
    vertex -41.256968301126314 3.756982490041281 7.014666625337895e-14
    vertex -41.41917997553704 3.8653688657036573 8.80000000000006
    vertex -41.25696830112633 3.756982490041281 8.800000000000061
  endloop
endfacet
facet normal -0.1950903220161291 0.9807852804032302 -1.569927369126335e-15
  outer loop
    vertex -62.00186340790214 3.86536886570359 8.800000000000031
    vertex -61.810521691719565 3.903429099447938 4.000827447114829e-14
    vertex -62.00186340790212 3.86536886570359 3.983202656598905e-14
  endloop
endfacet
facet normal -0.1950903220161291 0.9807852804032302 -1.569927369126335e-15
  outer loop
    vertex -61.810521691719565 3.903429099447938 4.000827447114829e-14
    vertex -62.00186340790214 3.86536886570359 8.800000000000031
    vertex -61.810521691719586 3.9034290994479606 8.800000000000031
  endloop
endfacet
facet normal -2.8195527666114753e-15 1.0 -7.583971808228092e-16
  outer loop
    vertex -61.810521691719565 3.903429099447938 4.000827447114829e-14
    vertex -55.60186340790212 3.9034290994479606 3.638060233744401
    vertex -41.61052169171959 3.903429099448006 6.979417044306046e-14
  endloop
endfacet
facet normal -2.8195527666114753e-15 1.0 -7.583971808228092e-16
  outer loop
    vertex -55.60186340790212 3.9034290994479606 3.638060233744401
    vertex -61.810521691719565 3.903429099447938 4.000827447114829e-14
    vertex -55.76407508231286 3.9034290994479606 3.746446609406765
  endloop
endfacet
facet normal -2.8195527666114753e-15 1.0 -7.583971808228092e-16
  outer loop
    vertex -55.76407508231286 3.9034290994479606 3.746446609406765
    vertex -61.810521691719565 3.903429099447938 4.000827447114829e-14
    vertex -61.810521691719586 3.9034290994479606 8.800000000000031
  endloop
endfacet
facet normal -2.8195527666114753e-15 1.0 -7.583971808228092e-16
  outer loop
    vertex -41.61052169171959 3.903429099448006 6.979417044306046e-14
    vertex -55.60186340790212 3.9034290994479606 3.638060233744401
    vertex -55.41052169171959 3.9034290994479606 3.6000000000000414
  endloop
endfacet
facet normal -2.8195527666114753e-15 1.0 -7.583971808228092e-16
  outer loop
    vertex -55.76407508231286 3.9034290994479606 3.746446609406765
    vertex -61.810521691719586 3.9034290994479606 8.800000000000031
    vertex -55.872461457975234 3.9034290994479606 3.908658283817497
  endloop
endfacet
facet normal -2.8195527666114753e-15 1.0 -7.583971808228092e-16
  outer loop
    vertex -55.872461457975234 3.9034290994479606 3.908658283817497
    vertex -61.810521691719586 3.9034290994479606 8.800000000000031
    vertex -55.91052169171958 3.9034290994479606 4.10000000000004
  endloop
endfacet
facet normal -2.8195527666114753e-15 1.0 -7.583971808228092e-16
  outer loop
    vertex -55.91052169171958 3.9034290994479606 4.10000000000004
    vertex -61.810521691719586 3.9034290994479606 8.800000000000031
    vertex -55.910521691719595 3.9034290994479606 6.3000000000000425
  endloop
endfacet
facet normal -2.8195527666114753e-15 1.0 -7.583971808228092e-16
  outer loop
    vertex -55.910521691719595 3.9034290994479606 6.3000000000000425
    vertex -61.810521691719586 3.9034290994479606 8.800000000000031
    vertex -55.87246145797525 3.9034290994479606 6.49134171618259
  endloop
endfacet
facet normal -2.8195527666114753e-15 1.0 -7.583971808228092e-16
  outer loop
    vertex -55.87246145797525 3.9034290994479606 6.49134171618259
    vertex -61.810521691719586 3.9034290994479606 8.800000000000031
    vertex -55.76407508231287 3.9034290994479606 6.653553390593316
  endloop
endfacet
facet normal -2.8195527666114753e-15 1.0 -7.583971808228092e-16
  outer loop
    vertex -55.76407508231287 3.9034290994479606 6.653553390593316
    vertex -61.810521691719586 3.9034290994479606 8.800000000000031
    vertex -55.60186340790213 3.9034290994479606 6.761939766255681
  endloop
endfacet
facet normal -2.8195527666114753e-15 1.0 -7.583971808228092e-16
  outer loop
    vertex -55.60186340790213 3.9034290994479606 6.761939766255681
    vertex -61.810521691719586 3.9034290994479606 8.800000000000031
    vertex -55.410521691719595 3.9034290994479606 6.800000000000041
  endloop
endfacet
facet normal -2.8195527666114753e-15 1.0 -7.583971808228092e-16
  outer loop
    vertex -55.410521691719595 3.9034290994479606 6.800000000000041
    vertex -61.810521691719586 3.9034290994479606 8.800000000000031
    vertex -48.01052169171959 3.903429099447983 6.800000000000051
  endloop
endfacet
facet normal -2.8195527666114753e-15 1.0 -7.583971808228092e-16
  outer loop
    vertex -41.61052169171959 3.903429099448006 6.979417044306046e-14
    vertex -47.6569683011263 3.903429099447983 3.746446609406777
    vertex -41.610521691719605 3.903429099448006 8.80000000000006
  endloop
endfacet
facet normal -2.8195527666114753e-15 1.0 -7.583971808228092e-16
  outer loop
    vertex -47.6569683011263 3.903429099447983 3.746446609406777
    vertex -41.61052169171959 3.903429099448006 6.979417044306046e-14
    vertex -47.81917997553704 3.903429099447983 3.6380602337444117
  endloop
endfacet
facet normal -2.8195527666114753e-15 1.0 -7.583971808228092e-16
  outer loop
    vertex -47.81917997553704 3.903429099447983 3.6380602337444117
    vertex -41.61052169171959 3.903429099448006 6.979417044306046e-14
    vertex -48.010521691719575 3.903429099447983 3.600000000000052
  endloop
endfacet
facet normal -2.8195527666114753e-15 1.0 -7.583971808228092e-16
  outer loop
    vertex -48.010521691719575 3.903429099447983 3.600000000000052
    vertex -41.61052169171959 3.903429099448006 6.979417044306046e-14
    vertex -55.41052169171959 3.9034290994479606 3.6000000000000414
  endloop
endfacet
facet normal -2.8195527666114753e-15 1.0 -7.583971808228092e-16
  outer loop
    vertex -41.610521691719605 3.903429099448006 8.80000000000006
    vertex -47.6569683011263 3.903429099447983 3.746446609406777
    vertex -47.54858192546395 3.903429099447983 3.908658283817509
  endloop
endfacet
facet normal -2.8195527666114753e-15 1.0 -7.583971808228092e-16
  outer loop
    vertex -41.610521691719605 3.903429099448006 8.80000000000006
    vertex -47.54858192546395 3.903429099447983 3.908658283817509
    vertex -47.510521691719575 3.903429099447983 4.100000000000052
  endloop
endfacet
facet normal -2.8195527666114753e-15 1.0 -7.583971808228092e-16
  outer loop
    vertex -41.610521691719605 3.903429099448006 8.80000000000006
    vertex -47.510521691719575 3.903429099447983 4.100000000000052
    vertex -47.51052169171959 3.903429099447983 6.300000000000053
  endloop
endfacet
facet normal -2.8195527666114753e-15 1.0 -7.583971808228092e-16
  outer loop
    vertex -41.610521691719605 3.903429099448006 8.80000000000006
    vertex -47.51052169171959 3.903429099447983 6.300000000000053
    vertex -47.54858192546396 3.903429099447983 6.4913417161826015
  endloop
endfacet
facet normal -2.8195527666114753e-15 1.0 -7.583971808228092e-16
  outer loop
    vertex -41.610521691719605 3.903429099448006 8.80000000000006
    vertex -47.54858192546396 3.903429099447983 6.4913417161826015
    vertex -47.65696830112631 3.903429099447983 6.653553390593328
  endloop
endfacet
facet normal -2.8195527666114753e-15 1.0 -7.583971808228092e-16
  outer loop
    vertex -41.610521691719605 3.903429099448006 8.80000000000006
    vertex -47.65696830112631 3.903429099447983 6.653553390593328
    vertex -47.81917997553705 3.903429099447983 6.761939766255693
  endloop
endfacet
facet normal -2.8195527666114753e-15 1.0 -7.583971808228092e-16
  outer loop
    vertex -41.610521691719605 3.903429099448006 8.80000000000006
    vertex -47.81917997553705 3.903429099447983 6.761939766255693
    vertex -48.01052169171959 3.903429099447983 6.800000000000051
  endloop
endfacet
facet normal -2.8195527666114753e-15 1.0 -7.583971808228092e-16
  outer loop
    vertex -41.610521691719605 3.903429099448006 8.80000000000006
    vertex -48.01052169171959 3.903429099447983 6.800000000000051
    vertex -61.810521691719586 3.9034290994479606 8.800000000000031
  endloop
endfacet
facet normal 0.831469612302495 0.5555702330196775 1.5990745473986171e-15
  outer loop
    vertex -41.256968301126314 3.756982490041281 7.014666625337895e-14
    vertex -41.14858192546395 3.594770815630566 8.800000000000061
    vertex -41.14858192546393 3.594770815630566 7.049916206369744e-14
  endloop
endfacet
facet normal 0.831469612302495 0.5555702330196775 1.5990745473986171e-15
  outer loop
    vertex -41.14858192546395 3.594770815630566 8.800000000000061
    vertex -41.256968301126314 3.756982490041281 7.014666625337895e-14
    vertex -41.25696830112633 3.756982490041281 8.800000000000061
  endloop
endfacet
facet normal -0.9807852804032413 0.1950903220160735 -1.5713709132956366e-15
  outer loop
    vertex -62.27246145797523 3.5947708156304987 8.800000000000031
    vertex -62.31052169171956 3.403429099447939 3.947953075567056e-14
    vertex -62.310521691719586 3.403429099447939 8.800000000000031
  endloop
endfacet
facet normal -0.9807852804032413 0.1950903220160735 -1.5713709132956366e-15
  outer loop
    vertex -62.31052169171956 3.403429099447939 3.947953075567056e-14
    vertex -62.27246145797523 3.5947708156304987 8.800000000000031
    vertex -62.27246145797521 3.5947708156304987 3.947953075567056e-14
  endloop
endfacet
facet normal 0.19509032201607351 0.9807852804032413 3.749900215164081e-16
  outer loop
    vertex -41.610521691719605 3.903429099448006 8.80000000000006
    vertex -41.41917997553703 3.8653688657036573 6.99704183482197e-14
    vertex -41.61052169171959 3.903429099448006 6.979417044306046e-14
  endloop
endfacet
facet normal 0.19509032201607351 0.9807852804032413 3.749900215164081e-16
  outer loop
    vertex -41.41917997553703 3.8653688657036573 6.99704183482197e-14
    vertex -41.610521691719605 3.903429099448006 8.80000000000006
    vertex -41.41917997553704 3.8653688657036573 8.80000000000006
  endloop
endfacet
facet normal -0.8314696123025084 0.5555702330196575 -1.3319561781285517e-15
  outer loop
    vertex -62.164075082312856 3.7569824900412137 8.800000000000031
    vertex -62.27246145797521 3.5947708156304987 3.947953075567056e-14
    vertex -62.27246145797523 3.5947708156304987 8.800000000000031
  endloop
endfacet
facet normal -0.8314696123025084 0.5555702330196575 -1.3319561781285517e-15
  outer loop
    vertex -62.27246145797521 3.5947708156304987 3.947953075567056e-14
    vertex -62.164075082312856 3.7569824900412137 8.800000000000031
    vertex -62.164075082312834 3.7569824900412137 3.947953075567056e-14
  endloop
endfacet
facet normal 1.0 2.8199664825479034e-15 2.5636058932253586e-15
  outer loop
    vertex -55.91052169171958 3.9034290994479606 4.10000000000004
    vertex -55.91052169171958 1.9034290994479643 6.3000000000000425
    vertex -55.91052169171958 1.9034290994479643 4.1000000000000405
  endloop
endfacet
facet normal 1.0 2.8199664825479034e-15 2.5636058932253586e-15
  outer loop
    vertex -55.91052169171958 1.9034290994479643 6.3000000000000425
    vertex -55.91052169171958 3.9034290994479606 4.10000000000004
    vertex -55.910521691719595 3.9034290994479606 6.3000000000000425
  endloop
endfacet
facet normal 1.2154190271703728e-15 3.7592559753267706e-16 -1.0
  outer loop
    vertex -62.31052169171956 3.403429099447939 3.947953075567056e-14
    vertex -41.11137196770085 -31.698242771900603 4.159450561758149e-14
    vertex -62.311371997697194 -31.699999999999495 4.159450561758149e-14
  endloop
endfacet
facet normal 1.2154190271703728e-15 3.7592559753267706e-16 -1.0
  outer loop
    vertex -41.11137196770085 -31.698242771900603 4.159450561758149e-14
    vertex -62.31052169171956 3.403429099447939 3.947953075567056e-14
    vertex -62.27246145797521 3.5947708156304987 3.947953075567056e-14
  endloop
endfacet
facet normal 1.2154190271703728e-15 3.7592559753267706e-16 -1.0
  outer loop
    vertex -41.11137196770085 -31.698242771900603 4.159450561758149e-14
    vertex -62.27246145797521 3.5947708156304987 3.947953075567056e-14
    vertex -62.164075082312834 3.7569824900412137 3.947953075567056e-14
  endloop
endfacet
facet normal 1.2154190271703728e-15 3.7592559753267706e-16 -1.0
  outer loop
    vertex -41.11137196770085 -31.698242771900603 4.159450561758149e-14
    vertex -62.164075082312834 3.7569824900412137 3.947953075567056e-14
    vertex -62.00186340790212 3.86536886570359 3.983202656598905e-14
  endloop
endfacet
facet normal 1.2154190271703728e-15 3.7592559753267706e-16 -1.0
  outer loop
    vertex -41.11137196770085 -31.698242771900603 4.159450561758149e-14
    vertex -62.00186340790212 3.86536886570359 3.983202656598905e-14
    vertex -61.810521691719565 3.903429099447938 4.000827447114829e-14
  endloop
endfacet
facet normal 1.2154190271703728e-15 3.7592559753267706e-16 -1.0
  outer loop
    vertex -41.11137196770085 -31.698242771900603 4.159450561758149e-14
    vertex -61.810521691719565 3.903429099447938 4.000827447114829e-14
    vertex -41.61052169171959 3.903429099448006 6.979417044306046e-14
  endloop
endfacet
facet normal 1.2154190271703728e-15 3.7592559753267706e-16 -1.0
  outer loop
    vertex -41.11137196770085 -31.698242771900603 4.159450561758149e-14
    vertex -41.61052169171959 3.903429099448006 6.979417044306046e-14
    vertex -41.41917997553703 3.8653688657036573 6.99704183482197e-14
  endloop
endfacet
facet normal 1.2154190271703728e-15 3.7592559753267706e-16 -1.0
  outer loop
    vertex -41.11137196770085 -31.698242771900603 4.159450561758149e-14
    vertex -41.41917997553703 3.8653688657036573 6.99704183482197e-14
    vertex -41.256968301126314 3.756982490041281 7.014666625337895e-14
  endloop
endfacet
facet normal 1.2154190271703728e-15 3.7592559753267706e-16 -1.0
  outer loop
    vertex -41.11137196770085 -31.698242771900603 4.159450561758149e-14
    vertex -41.256968301126314 3.756982490041281 7.014666625337895e-14
    vertex -41.14858192546393 3.594770815630566 7.049916206369744e-14
  endloop
endfacet
facet normal 1.2154190271703728e-15 3.7592559753267706e-16 -1.0
  outer loop
    vertex -41.11137196770085 -31.698242771900603 4.159450561758149e-14
    vertex -41.14858192546393 3.594770815630566 7.049916206369744e-14
    vertex -41.11052169171958 3.4034290994480068 7.049916206369744e-14
  endloop
endfacet
facet normal -0.5555702330196575 0.8314696123025084 -8.906110930752205e-16
  outer loop
    vertex -62.164075082312856 3.7569824900412137 8.800000000000031
    vertex -62.00186340790212 3.86536886570359 3.983202656598905e-14
    vertex -62.164075082312834 3.7569824900412137 3.947953075567056e-14
  endloop
endfacet
facet normal -0.5555702330196575 0.8314696123025084 -8.906110930752205e-16
  outer loop
    vertex -62.00186340790212 3.86536886570359 3.983202656598905e-14
    vertex -62.164075082312856 3.7569824900412137 8.800000000000031
    vertex -62.00186340790214 3.86536886570359 8.800000000000031
  endloop
endfacet
facet normal -1.0 -3.2264884387045882e-15 -1.7739396166145658e-15
  outer loop
    vertex -42.7105216917196 1.9034290994480094 8.80000000000006
    vertex -42.71052169171956 -5.196570900551977 4.000000000000062
    vertex -42.71052169171957 -5.196570900551977 8.800000000000061
  endloop
endfacet
facet normal -1.0 -3.2264884387045882e-15 -1.7739396166145658e-15
  outer loop
    vertex -42.71052169171949 -27.196570900552004 6.000000000000074
    vertex -42.710521691719485 -29.696570900552 2.000000000000076
    vertex -42.710521691719485 -29.696570900552 6.000000000000074
  endloop
endfacet
facet normal -1.0 -3.2264884387045882e-15 -1.7739396166145658e-15
  outer loop
    vertex -42.710521691719485 -29.696570900552 2.000000000000076
    vertex -42.71052169171949 -27.196570900552004 6.000000000000074
    vertex -42.71052169171949 -27.196570900551983 4.000000000000072
  endloop
endfacet
facet normal -1.0 -3.2264884387045882e-15 -1.7739396166145658e-15
  outer loop
    vertex -42.710521691719485 -29.696570900552 2.000000000000076
    vertex -42.71052169171949 -27.196570900551983 4.000000000000072
    vertex -42.710521691719585 1.9034290994480094 2.0000000000000635
  endloop
endfacet
facet normal -1.0 -3.2264884387045882e-15 -1.7739396166145658e-15
  outer loop
    vertex -42.710521691719585 1.9034290994480094 2.0000000000000635
    vertex -42.71052169171949 -27.196570900551983 4.000000000000072
    vertex -42.71052169171956 -5.196570900551977 4.000000000000062
  endloop
endfacet
facet normal -1.0 -3.2264884387045882e-15 -1.7739396166145658e-15
  outer loop
    vertex -42.710521691719585 1.9034290994480094 2.0000000000000635
    vertex -42.71052169171956 -5.196570900551977 4.000000000000062
    vertex -42.7105216917196 1.9034290994480094 8.80000000000006
  endloop
endfacet
facet normal 0.0 -1.0 0.0
  outer loop
    vertex -60.71052169171956 -5.196570900552045 8.800000000000036
    vertex -62.310521691719536 -5.196570900552045 4.00000000000004
    vertex -60.71052169171955 -5.196570900552045 4.000000000000037
  endloop
endfacet
facet normal 0.0 -1.0 0.0
  outer loop
    vertex -62.310521691719536 -5.196570900552045 4.00000000000004
    vertex -60.71052169171956 -5.196570900552045 8.800000000000036
    vertex -62.31052169171955 -5.196570900552045 8.800000000000033
  endloop
endfacet
facet normal 4.570660424623601e-09 4.2539572532208544e-27 -1.0
  outer loop
    vertex -41.11137197469998 -9.698652791772739 1.499999939958506
    vertex -41.71137197464638 -31.698656065792157 1.4999999372161097
    vertex -41.71137197464638 -9.698656065792177 1.4999999372161097
  endloop
endfacet
facet normal 4.570660424623601e-09 4.2539572532208544e-27 -1.0
  outer loop
    vertex -41.71137197464638 -31.698656065792157 1.4999999372161097
    vertex -41.11137197469998 -9.698652791772739 1.499999939958506
    vertex -41.11137197469998 -31.69865279177272 1.499999939958506
  endloop
endfacet
facet normal -3.3239849669019004e-09 -6.042921037988743e-19 1.0
  outer loop
    vertex -62.311371993697676 -31.69818419769982 0.49999997226819065
    vertex -61.71137199769683 -9.698418524081255 0.49999997426258164
    vertex -62.31137199769718 -9.698418494769621 0.49999997226819065
  endloop
endfacet
facet normal -3.3239849669019004e-09 -6.042921037988743e-19 1.0
  outer loop
    vertex -61.71137199769683 -9.698418524081255 0.49999997426258164
    vertex -62.311371993697676 -31.69818419769982 0.49999997226819065
    vertex -61.71137199369733 -31.698184227011456 0.49999997426258164
  endloop
endfacet
facet normal -4.570660424623597e-09 -8.30934562475052e-19 1.0
  outer loop
    vertex -41.71137197064688 -31.698421768722376 0.4999999715255585
    vertex -41.11137197469998 -9.698652791772739 0.4999999742679547
    vertex -41.71137197464638 -9.698656065792177 0.4999999715255585
  endloop
endfacet
facet normal -4.570660424623597e-09 -8.30934562475052e-19 1.0
  outer loop
    vertex -41.11137197469998 -9.698652791772739 0.4999999742679547
    vertex -41.71137197064688 -31.698421768722376 0.4999999715255585
    vertex -41.111371970700475 -31.69841849470294 0.4999999742679547
  endloop
endfacet
facet normal 1.0 9.089777415093685e-11 1.9997617485858064e-09
  outer loop
    vertex -41.71137197064688 -31.698421768722376 0.4999999715255585
    vertex -41.71137197464638 -9.698656065792177 1.4999999372161097
    vertex -41.71137197464638 -31.698656065792157 1.4999999372161097
  endloop
endfacet
facet normal 1.0 9.089777415093685e-11 1.9997617485858064e-09
  outer loop
    vertex -41.71137197464638 -9.698656065792177 1.4999999372161097
    vertex -41.71137197064688 -31.698421768722376 0.4999999715255585
    vertex -41.71137197464638 -9.698656065792177 0.4999999715255585
  endloop
endfacet
facet normal 5.456699063376605e-06 -0.9999999999851124 9.388372288348548e-23
  outer loop
    vertex -41.11137197469998 -9.698652791772739 0.4999999742679547
    vertex -41.71137197464638 -9.698656065792177 1.4999999372161097
    vertex -41.71137197464638 -9.698656065792177 0.4999999715255585
  endloop
endfacet
facet normal 5.456699063376605e-06 -0.9999999999851124 9.388372288348548e-23
  outer loop
    vertex -41.71137197464638 -9.698656065792177 1.4999999372161097
    vertex -41.11137197469998 -9.698652791772739 0.4999999742679547
    vertex -41.11137197469998 -9.698652791772739 1.499999939958506
  endloop
endfacet
facet normal -1.0 -9.089777415093685e-11 -1.999761748585806e-09
  outer loop
    vertex -61.71137199769683 -9.698418524081255 1.499999939953133
    vertex -61.71137199369733 -31.698184227011456 0.49999997426258164
    vertex -61.71137199769683 -31.698418524081237 1.499999939953133
  endloop
endfacet
facet normal -1.0 -9.089777415093685e-11 -1.999761748585806e-09
  outer loop
    vertex -61.71137199369733 -31.698184227011456 0.49999997426258164
    vertex -61.71137199769683 -9.698418524081255 1.499999939953133
    vertex -61.71137199769683 -9.698418524081255 0.49999997426258164
  endloop
endfacet
facet normal -4.8852723348099984e-08 -0.9999999999999989 1.4017230027852018e-24
  outer loop
    vertex -61.71137199769683 -9.698418524081255 0.49999997426258164
    vertex -62.31137199769718 -9.698418494769621 1.4999999379587419
    vertex -62.31137199769718 -9.698418494769621 0.49999997226819065
  endloop
endfacet
facet normal -4.8852723348099984e-08 -0.9999999999999989 1.4017230027852018e-24
  outer loop
    vertex -62.31137199769718 -9.698418494769621 1.4999999379587419
    vertex -61.71137199769683 -9.698418524081255 0.49999997426258164
    vertex -61.71137199769683 -9.698418524081255 1.499999939953133
  endloop
endfacet
facet normal 5.956340372247136e-06 -0.9999999687963012 -0.0002497437060915133
  outer loop
    vertex -41.111371970700475 -31.69841849470294 0.4999999742679547
    vertex -62.311371997697194 -31.699999999999495 4.159450561758149e-14
    vertex -41.11137196770085 -31.698242771900603 4.159450561758149e-14
  endloop
endfacet
facet normal 5.956340372247136e-06 -0.9999999687963012 -0.0002497437060915133
  outer loop
    vertex -62.311371997697194 -31.699999999999495 4.159450561758149e-14
    vertex -41.111371970700475 -31.69841849470294 0.4999999742679547
    vertex -41.71137197064688 -31.698421768722376 0.4999999715255585
  endloop
endfacet
facet normal 5.956340372247136e-06 -0.9999999687963012 -0.0002497437060915133
  outer loop
    vertex -41.71137197064688 -31.698421768722376 0.4999999715255585
    vertex -62.311371993697676 -31.69818419769982 0.49999997226819065
    vertex -62.311371997697194 -31.699999999999495 4.159450561758149e-14
  endloop
endfacet
facet normal 5.956340372247136e-06 -0.9999999687963012 -0.0002497437060915133
  outer loop
    vertex -62.311371993697676 -31.69818419769982 0.49999997226819065
    vertex -41.71137197064688 -31.698421768722376 0.4999999715255585
    vertex -61.71137199369733 -31.698184227011456 0.49999997426258164
  endloop
endfacet
facet normal 5.956340372247136e-06 -0.9999999687963012 -0.0002497437060915133
  outer loop
    vertex -61.71137199369733 -31.698184227011456 0.49999997426258164
    vertex -41.71137197064688 -31.698421768722376 0.4999999715255585
    vertex -41.71137197464638 -31.698656065792157 1.4999999372161097
  endloop
endfacet
facet normal 5.956340372247136e-06 -0.9999999687963012 -0.0002497437060915133
  outer loop
    vertex -61.71137199369733 -31.698184227011456 0.49999997426258164
    vertex -41.71137197464638 -31.698656065792157 1.4999999372161097
    vertex -61.71137199769683 -31.698418524081237 1.499999939953133
  endloop
endfacet
facet normal 5.956340372247136e-06 -0.9999999687963012 -0.0002497437060915133
  outer loop
    vertex -61.71137199769683 -31.698418524081237 1.499999939953133
    vertex -41.71137197464638 -31.698656065792157 1.4999999372161097
    vertex -41.11137197469998 -31.69865279177272 1.499999939958506
  endloop
endfacet
facet normal 5.956340372247136e-06 -0.9999999687963012 -0.0002497437060915133
  outer loop
    vertex -41.11137197469998 -31.69865279177272 1.499999939958506
    vertex -44.70709698547881 -31.699999999999452 2.0000000000000733
    vertex -58.71137199769711 -31.699999999999473 2.0000000000000533
  endloop
endfacet
facet normal 5.956340372247136e-06 -0.9999999687963012 -0.0002497437060915133
  outer loop
    vertex -44.70709698547881 -31.699999999999452 2.0000000000000733
    vertex -41.11137197469998 -31.69865279177272 1.499999939958506
    vertex -41.11137199769713 -31.699999999999427 6.000000000000078
  endloop
endfacet
facet normal 5.956340372247136e-06 -0.9999999687963012 -0.0002497437060915133
  outer loop
    vertex -44.70709698547881 -31.699999999999452 2.0000000000000733
    vertex -41.11137199769713 -31.699999999999427 6.000000000000078
    vertex -44.70709698547881 -31.699999999999452 6.000000000000071
  endloop
endfacet
facet normal 5.956340372247136e-06 -0.9999999687963012 -0.0002497437060915133
  outer loop
    vertex -61.71137199769683 -31.698418524081237 1.499999939953133
    vertex -62.3113719976971 -31.699999999999495 6.000000000000052
    vertex -62.31137199769718 -31.698418494769605 1.4999999379587419
  endloop
endfacet
facet normal 5.956340372247136e-06 -0.9999999687963012 -0.0002497437060915133
  outer loop
    vertex -62.3113719976971 -31.699999999999495 6.000000000000052
    vertex -61.71137199769683 -31.698418524081237 1.499999939953133
    vertex -58.71137199769711 -31.699999999999473 2.0000000000000533
  endloop
endfacet
facet normal 5.956340372247136e-06 -0.9999999687963012 -0.0002497437060915133
  outer loop
    vertex -58.71137199769711 -31.699999999999473 2.0000000000000533
    vertex -61.71137199769683 -31.698418524081237 1.499999939953133
    vertex -41.11137197469998 -31.69865279177272 1.499999939958506
  endloop
endfacet
facet normal 5.956340372247136e-06 -0.9999999687963012 -0.0002497437060915133
  outer loop
    vertex -62.3113719976971 -31.699999999999495 6.000000000000052
    vertex -58.71137199769711 -31.699999999999473 2.0000000000000533
    vertex -58.71137199769712 -31.699999999999473 6.000000000000051
  endloop
endfacet
facet normal 0.9999999979241281 -1.2895854750566615e-05 -6.313034957349351e-05
  outer loop
    vertex -41.11137196770085 -31.698242771900603 4.159450561758149e-14
    vertex -41.11137197469998 -9.698652791772739 0.4999999742679547
    vertex -41.111371970700475 -31.69841849470294 0.4999999742679547
  endloop
endfacet
facet normal 0.9999999979241281 -1.2895854750566615e-05 -6.313034957349351e-05
  outer loop
    vertex -41.11137197469998 -9.698652791772739 0.4999999742679547
    vertex -41.11137196770085 -31.698242771900603 4.159450561758149e-14
    vertex -41.11052169171958 3.4034290994480068 7.049916206369744e-14
  endloop
endfacet
facet normal 0.9999999979241281 -1.2895854750566615e-05 -6.313034957349351e-05
  outer loop
    vertex -41.11137197469998 -9.698652791772739 0.4999999742679547
    vertex -41.11052169171958 3.4034290994480068 7.049916206369744e-14
    vertex -41.11137197469998 -9.698652791772739 1.499999939958506
  endloop
endfacet
facet normal 0.9999999979241281 -1.2895854750566615e-05 -6.313034957349351e-05
  outer loop
    vertex -41.11137197469998 -9.698652791772739 1.499999939958506
    vertex -41.11052169171958 3.4034290994480068 7.049916206369744e-14
    vertex -41.11052169171957 -5.196570900551977 4.000000000000066
  endloop
endfacet
facet normal 0.9999999979241281 -1.2895854750566615e-05 -6.313034957349351e-05
  outer loop
    vertex -41.11052169171957 -5.196570900551977 4.000000000000066
    vertex -41.11052169171958 3.4034290994480068 7.049916206369744e-14
    vertex -41.110521691719576 -5.196570900551977 8.800000000000065
  endloop
endfacet
facet normal 0.9999999979241281 -1.2895854750566615e-05 -6.313034957349351e-05
  outer loop
    vertex -41.110521691719576 -5.196570900551977 8.800000000000065
    vertex -41.11052169171958 3.4034290994480068 7.049916206369744e-14
    vertex -41.1105216917196 3.4034290994480068 8.800000000000061
  endloop
endfacet
facet normal 0.9999999979241281 -1.2895854750566615e-05 -6.313034957349351e-05
  outer loop
    vertex -41.11137197469998 -9.698652791772739 1.499999939958506
    vertex -41.1105216917195 -27.196570900552004 4.000000000000075
    vertex -41.11137197469998 -31.69865279177272 1.499999939958506
  endloop
endfacet
facet normal 0.9999999979241281 -1.2895854750566615e-05 -6.313034957349351e-05
  outer loop
    vertex -41.1105216917195 -27.196570900552004 4.000000000000075
    vertex -41.11137197469998 -9.698652791772739 1.499999939958506
    vertex -41.11052169171957 -5.196570900551977 4.000000000000066
  endloop
endfacet
facet normal 0.9999999979241281 -1.2895854750566615e-05 -6.313034957349351e-05
  outer loop
    vertex -41.11137197469998 -31.69865279177272 1.499999939958506
    vertex -41.1105216917195 -27.196570900552004 6.000000000000076
    vertex -41.11137199769713 -31.699999999999427 6.000000000000078
  endloop
endfacet
facet normal 0.9999999979241281 -1.2895854750566615e-05 -6.313034957349351e-05
  outer loop
    vertex -41.1105216917195 -27.196570900552004 6.000000000000076
    vertex -41.11137197469998 -31.69865279177272 1.499999939958506
    vertex -41.1105216917195 -27.196570900552004 4.000000000000075
  endloop
endfacet
facet normal -0.9999999979239795 1.2895861782953493e-05 6.313269993273935e-05
  outer loop
    vertex -62.31052169171948 -27.19657090055207 6.000000000000045
    vertex -62.31137199769718 -31.698418494769605 1.4999999379587419
    vertex -62.3113719976971 -31.699999999999495 6.000000000000052
  endloop
endfacet
facet normal -0.9999999979239795 1.2895861782953493e-05 6.313269993273935e-05
  outer loop
    vertex -62.31137199769718 -31.698418494769605 1.4999999379587419
    vertex -62.31052169171948 -27.19657090055207 6.000000000000045
    vertex -62.31052169171947 -27.19657090055207 4.000000000000048
  endloop
endfacet
facet normal -0.9999999979239795 1.2895861782953493e-05 6.313269993273935e-05
  outer loop
    vertex -62.31137199769718 -31.698418494769605 1.4999999379587419
    vertex -62.31052169171947 -27.19657090055207 4.000000000000048
    vertex -62.31137199769718 -9.698418494769621 1.4999999379587419
  endloop
endfacet
facet normal -0.9999999979239795 1.2895861782953493e-05 6.313269993273935e-05
  outer loop
    vertex -62.31137199769718 -9.698418494769621 1.4999999379587419
    vertex -62.31052169171947 -27.19657090055207 4.000000000000048
    vertex -62.310521691719536 -5.196570900552045 4.00000000000004
  endloop
endfacet
facet normal -0.9999999979239795 1.2895861782953493e-05 6.313269993273935e-05
  outer loop
    vertex -62.31137199769718 -9.698418494769621 1.4999999379587419
    vertex -62.310521691719536 -5.196570900552045 4.00000000000004
    vertex -62.31137199769718 -9.698418494769621 0.49999997226819065
  endloop
endfacet
facet normal -0.9999999979239795 1.2895861782953493e-05 6.313269993273935e-05
  outer loop
    vertex -62.310521691719586 3.403429099447939 8.800000000000031
    vertex -62.310521691719536 -5.196570900552045 4.00000000000004
    vertex -62.31052169171955 -5.196570900552045 8.800000000000033
  endloop
endfacet
facet normal -0.9999999979239795 1.2895861782953493e-05 6.313269993273935e-05
  outer loop
    vertex -62.311371993697676 -31.69818419769982 0.49999997226819065
    vertex -62.31052169171956 3.403429099447939 3.947953075567056e-14
    vertex -62.311371997697194 -31.699999999999495 4.159450561758149e-14
  endloop
endfacet
facet normal -0.9999999979239795 1.2895861782953493e-05 6.313269993273935e-05
  outer loop
    vertex -62.31052169171956 3.403429099447939 3.947953075567056e-14
    vertex -62.311371993697676 -31.69818419769982 0.49999997226819065
    vertex -62.31137199769718 -9.698418494769621 0.49999997226819065
  endloop
endfacet
facet normal -0.9999999979239795 1.2895861782953493e-05 6.313269993273935e-05
  outer loop
    vertex -62.31052169171956 3.403429099447939 3.947953075567056e-14
    vertex -62.31137199769718 -9.698418494769621 0.49999997226819065
    vertex -62.310521691719536 -5.196570900552045 4.00000000000004
  endloop
endfacet
facet normal -0.9999999979239795 1.2895861782953493e-05 6.313269993273935e-05
  outer loop
    vertex -62.31052169171956 3.403429099447939 3.947953075567056e-14
    vertex -62.310521691719536 -5.196570900552045 4.00000000000004
    vertex -62.310521691719586 3.403429099447939 8.800000000000031
  endloop
endfacet
facet normal 3.3239849669019004e-09 -1.7814736301697143e-27 -1.0
  outer loop
    vertex -61.71137199769683 -9.698418524081255 1.499999939953133
    vertex -62.31137199769718 -31.698418494769605 1.4999999379587419
    vertex -62.31137199769718 -9.698418494769621 1.4999999379587419
  endloop
endfacet
facet normal 3.3239849669019004e-09 -1.7814736301697143e-27 -1.0
  outer loop
    vertex -62.31137199769718 -31.698418494769605 1.4999999379587419
    vertex -61.71137199769683 -9.698418524081255 1.499999939953133
    vertex -61.71137199769683 -31.698418524081237 1.499999939953133
  endloop
endfacet
endsolid a1
