solid a1
facet normal 0.0 0.0 -1.0
  outer loop
    vertex 17.89999999999999 -9.999999999999936 -32.4
    vertex -17.90000000000002 -181.99999999999997 -32.4
    vertex -17.90000000000002 -9.999999999999936 -32.4
  endloop
endfacet
facet normal 0.0 0.0 -1.0
  outer loop
    vertex -17.90000000000002 -181.99999999999997 -32.4
    vertex 17.89999999999999 -9.999999999999936 -32.4
    vertex 17.89999999999999 -181.99999999999997 -32.4
  endloop
endfacet
facet normal 0.0 0.0 1.0
  outer loop
    vertex 17.89999999999999 -181.99999999999997 -31.0
    vertex -17.90000000000002 -9.999999999999936 -31.0
    vertex -17.90000000000002 -181.99999999999997 -31.0
  endloop
endfacet
facet normal 0.0 0.0 1.0
  outer loop
    vertex -17.90000000000002 -9.999999999999936 -31.0
    vertex 17.89999999999999 -181.99999999999997 -31.0
    vertex 17.89999999999999 -9.999999999999936 -31.0
  endloop
endfacet
facet normal -1.0 0.0 0.0
  outer loop
    vertex -17.90000000000002 -9.999999999999936 -31.0
    vertex -17.90000000000002 -181.99999999999997 -32.4
    vertex -17.90000000000002 -181.99999999999997 -31.0
  endloop
endfacet
facet normal -1.0 0.0 0.0
  outer loop
    vertex -17.90000000000002 -181.99999999999997 -32.4
    vertex -17.90000000000002 -9.999999999999936 -31.0
    vertex -17.90000000000002 -9.999999999999936 -32.4
  endloop
endfacet
facet normal -0.0 -1.0 -0.0
  outer loop
    vertex 17.89999999999999 -181.99999999999997 -31.0
    vertex -17.90000000000002 -181.99999999999997 -32.4
    vertex 17.89999999999999 -181.99999999999997 -32.4
  endloop
endfacet
facet normal -0.0 -1.0 -0.0
  outer loop
    vertex -17.90000000000002 -181.99999999999997 -32.4
    vertex 17.89999999999999 -181.99999999999997 -31.0
    vertex -17.90000000000002 -181.99999999999997 -31.0
  endloop
endfacet
facet normal 0.0 1.0 0.0
  outer loop
    vertex -17.90000000000002 -9.999999999999936 -31.0
    vertex 17.89999999999999 -9.999999999999936 -32.4
    vertex -17.90000000000002 -9.999999999999936 -32.4
  endloop
endfacet
facet normal 0.0 1.0 0.0
  outer loop
    vertex 17.89999999999999 -9.999999999999936 -32.4
    vertex -17.90000000000002 -9.999999999999936 -31.0
    vertex 17.89999999999999 -9.999999999999936 -31.0
  endloop
endfacet
facet normal 1.0 0.0 0.0
  outer loop
    vertex 17.89999999999999 -9.999999999999936 -32.4
    vertex 17.89999999999999 -181.99999999999997 -31.0
    vertex 17.89999999999999 -181.99999999999997 -32.4
  endloop
endfacet
facet normal 1.0 0.0 0.0
  outer loop
    vertex 17.89999999999999 -181.99999999999997 -31.0
    vertex 17.89999999999999 -9.999999999999936 -32.4
    vertex 17.89999999999999 -9.999999999999936 -31.0
  endloop
endfacet
endsolid a1
